<?xml version="1.0" encoding="UTF-8" standalone="no"?>
<!-- Created with Inkscape (http://www.inkscape.org/) -->

<svg
   xmlns:dc="http://purl.org/dc/elements/1.1/"
   xmlns:cc="http://creativecommons.org/ns#"
   xmlns:rdf="http://www.w3.org/1999/02/22-rdf-syntax-ns#"
   xmlns:svg="http://www.w3.org/2000/svg"
   xmlns="http://www.w3.org/2000/svg"
   xmlns:sodipodi="http://sodipodi.sourceforge.net/DTD/sodipodi-0.dtd"
   xmlns:inkscape="http://www.inkscape.org/namespaces/inkscape"
   width="28.335722mm"
   height="12.5mm"
   viewBox="0 0 28.335722 12.5"
   version="1.1"
   id="svg8"
   inkscape:version="0.92.3 (unknown)"
   sodipodi:docname="argooo.svg">
  <defs
     id="defs2" />
  <sodipodi:namedview
     id="base"
     pagecolor="#ffffff"
     bordercolor="#666666"
     borderopacity="1.0"
     inkscape:pageopacity="0.0"
     inkscape:pageshadow="2"
     inkscape:zoom="0.98994949"
     inkscape:cx="-80.439757"
     inkscape:cy="-5.4833099"
     inkscape:document-units="mm"
     inkscape:current-layer="layer1"
     showgrid="false"
     showguides="false"
     inkscape:window-width="1366"
     inkscape:window-height="725"
     inkscape:window-x="0"
     inkscape:window-y="0"
     inkscape:window-maximized="1" />
  <metadata
     id="metadata5">
    <rdf:RDF>
      <cc:Work
         rdf:about="">
        <dc:format>image/svg+xml</dc:format>
        <dc:type
           rdf:resource="http://purl.org/dc/dcmitype/StillImage" />
        <dc:title></dc:title>
      </cc:Work>
    </rdf:RDF>
  </metadata>
  <g
     inkscape:label="Layer 1"
     inkscape:groupmode="layer"
     id="layer1"
     transform="translate(-167.61026,388.15716)">
    <text
       xml:space="preserve"
       style="font-style:normal;font-variant:normal;font-weight:normal;font-stretch:normal;font-size:9.8777771px;line-height:1.25;font-family:'Liberation Serif';-inkscape-font-specification:'Liberation Serif';letter-spacing:0px;word-spacing:0px;fill:#831216;fill-opacity:1;stroke:none;stroke-width:0.26458332"
       x="-96.761909"
       y="-202.21205"
       id="text817"><tspan
         sodipodi:role="line"
         id="tspan815"
         x="-96.761909"
         y="-202.21205"
         style="font-style:normal;font-variant:normal;font-weight:normal;font-stretch:normal;font-family:'Ancient Geek';-inkscape-font-specification:'Ancient Geek';fill:#831216;fill-opacity:1;stroke-width:0.26458332">AargoARGO</tspan></text>
    <text
       id="text821"
       y="-193.21634"
       x="-91.470238"
       style="font-style:normal;font-variant:normal;font-weight:normal;font-stretch:normal;font-size:9.8777771px;line-height:1.25;font-family:'Liberation Serif';-inkscape-font-specification:'Liberation Serif';letter-spacing:0px;word-spacing:0px;fill:#831216;fill-opacity:1;stroke:none;stroke-width:0.26458332"
       xml:space="preserve"><tspan
         style="font-style:normal;font-variant:normal;font-weight:normal;font-stretch:normal;font-family:Isabella;-inkscape-font-specification:Isabella;fill:#831216;fill-opacity:1;stroke-width:0.26458332"
         y="-193.21634"
         x="-91.470238"
         id="tspan819"
         sodipodi:role="line">A</tspan></text>
    <text
       id="text825"
       y="-219.40997"
       x="-89.958336"
       style="font-style:normal;font-variant:normal;font-weight:normal;font-stretch:normal;font-size:9.8777771px;line-height:1.25;font-family:'Liberation Serif';-inkscape-font-specification:'Liberation Serif';letter-spacing:0px;word-spacing:0px;fill:#831216;fill-opacity:1;stroke:none;stroke-width:0.26458332"
       xml:space="preserve"><tspan
         style="font-style:normal;font-variant:normal;font-weight:normal;font-stretch:normal;font-family:'Ancient Geek';-inkscape-font-specification:'Ancient Geek';fill:#831216;fill-opacity:1;stroke-width:0.26458332"
         y="-219.40997"
         x="-89.958336"
         id="tspan823"
         sodipodi:role="line">Aargo</tspan></text>
    <path
       inkscape:connector-curvature="0"
       id="path831"
       style="font-style:normal;font-variant:normal;font-weight:normal;font-stretch:normal;font-size:medium;line-height:1.25;font-family:'Ancient Geek';-inkscape-font-specification:'Ancient Geek';letter-spacing:0px;word-spacing:0px;fill:#831216;fill-opacity:1;stroke:none;stroke-width:1.83754551"
       d="m -83.056581,-304.82236 26.12771,-45.42196 26.12759,45.42196 z m 7.10144,-3.34976 h 33.89889 l -16.88246,-29.4773 z" />
    <path
       d="m -191.98042,-323.61386 30.09637,-52.32136 30.09635,52.32136 z m 8.18006,-3.85856 h 39.04808 l -19.44687,-33.9548 z"
       style="font-style:normal;font-variant:normal;font-weight:normal;font-stretch:normal;font-size:medium;line-height:1.25;font-family:'Ancient Geek';-inkscape-font-specification:'Ancient Geek';letter-spacing:0px;word-spacing:0px;fill:#831216;fill-opacity:1;stroke:none;stroke-width:2.11666656"
       id="path865"
       inkscape:connector-curvature="0" />
    <g
       transform="translate(-88.446429,-100.88184)"
       id="g875">
      <path
         inkscape:connector-curvature="0"
         id="path867"
         style="font-style:normal;font-variant:normal;font-weight:normal;font-stretch:normal;font-size:medium;line-height:1.25;font-family:'Ancient Geek';-inkscape-font-specification:'Ancient Geek';letter-spacing:0px;word-spacing:0px;fill:#831216;fill-opacity:1;stroke:none;stroke-width:0.26458332"
         d="m -86.83413,-231.31622 h -1.736328 v -0.25081 q 0.347266,0 0.501606,-0.1254 0.15434,-0.1254 0.270095,-0.49196 l 1.929254,-5.672 h 0.771701 l 1.929253,5.672 q 0.09646,0.30868 0.241157,0.46302 0.144694,0.15434 0.530545,0.15434 v 0.25081 h -2.218642 v -0.25081 q 0.385851,0 0.482314,-0.15434 0.04823,-0.0772 0.04823,-0.19292 0,-0.11576 -0.04823,-0.2701 l -1.581988,-4.84242 -1.60128,4.84242 q -0.0627,0.18328 -0.0627,0.30868 0,0.11094 0.05305,0.17364 0.106109,0.13504 0.49196,0.13504 z" />
      <path
         inkscape:connector-curvature="0"
         id="path869"
         style="font-style:normal;font-variant:normal;font-weight:normal;font-stretch:normal;font-size:medium;line-height:1.25;font-family:'Ancient Geek';-inkscape-font-specification:'Ancient Geek';letter-spacing:0px;word-spacing:0px;fill:#831216;fill-opacity:1;stroke:none;stroke-width:0.26458332"
         d="m -82.184629,-231.31622 v -0.25081 q 0.327973,0 0.453375,-0.0868 0.125401,-0.0868 0.125401,-0.29904 v -5.22827 q 0,-0.2701 -0.125401,-0.34727 -0.125402,-0.0772 -0.453375,-0.0772 v -0.2508 h 2.122179 q 0.983919,0 1.620572,0.33762 0.636654,0.33762 0.636654,1.418 0,0.98392 -0.501606,1.37941 -0.47749,0.37621 -0.819932,0.37621 -0.01447,0 -0.02894,0 l 0.829579,1.08038 0.636653,-0.84887 h 0.540191 l -0.906749,1.23472 0.810287,0.96463 q 0.192925,0.17363 0.327973,0.2508 0.135047,0.0772 0.424435,0.0965 v 0.25081 h -2.064301 v -0.25081 q 0.270096,0 0.356912,-0.0965 0.03376,-0.0386 0.03376,-0.0916 0,-0.082 -0.08199,-0.19775 l -0.250803,-0.36655 -0.713824,1.00321 H -79.6766 l 0.887457,-1.3119 -1.331185,-1.71703 h -0.520898 v 2.39227 q 0,0.21222 0.125401,0.29904 0.125402,0.0868 0.453375,0.0868 v 0.25081 z m 1.543403,-3.51124 h 0.848871 q 0.559484,0 0.781348,-0.30868 0.221864,-0.30869 0.221864,-1.08039 0,-0.71382 -0.279742,-0.93568 -0.279742,-0.22187 -0.935688,-0.22187 h -0.636653 z" />
      <path
         inkscape:connector-curvature="0"
         id="path871"
         style="font-style:normal;font-variant:normal;font-weight:normal;font-stretch:normal;font-size:medium;line-height:1.25;font-family:'Ancient Geek';-inkscape-font-specification:'Ancient Geek';letter-spacing:0px;word-spacing:0px;fill:#831216;fill-opacity:1;stroke:none;stroke-width:0.26458332"
         d="m -75.895263,-234.57666 q 0,-1.09968 0.636653,-2.11253 0.636654,-1.01286 1.871376,-1.1672 0.207395,-0.01 0.385851,-0.01 0.487136,0 0.771701,0.0772 0.385851,0.10611 0.617361,0.22187 0.101286,0.0579 0.16881,0.0579 0.04341,0 0.07235,-0.0289 0.05305,-0.053 0.05305,-0.21221 0,-0.0482 -0.0048,-0.10611 h 0.30868 l 0.482314,1.69774 h -0.289388 q -0.578776,-0.84887 -1.167198,-1.09003 -0.395497,-0.16398 -0.921219,-0.16398 -0.255626,0 -0.535368,0.0386 -0.868164,0.21222 -1.234722,1.23472 -0.279742,0.77653 -0.279742,1.44212 0,0.21222 0.02894,0.40997 0.09646,1.09967 0.501606,1.75562 0.405143,0.65594 1.331185,0.73311 0.868164,0 1.205783,-0.54983 0.33762,-0.54984 0.33762,-1.22508 0,-0.21222 -0.125402,-0.29903 -0.125401,-0.0868 -0.453374,-0.0868 v -0.2508 h 1.543402 v 2.89388 q -0.270095,0 -0.453374,-0.1447 -0.183279,-0.14469 -0.26045,-0.41479 -0.347265,0.30868 -0.839225,0.44373 -0.429259,0.11576 -1.056266,0.12058 -0.09164,0 -0.188102,-0.005 -1.061089,0 -1.784559,-0.83923 -0.72347,-0.83922 -0.72347,-2.42121 z" />
      <path
         inkscape:connector-curvature="0"
         id="path873"
         style="font-style:normal;font-variant:normal;font-weight:normal;font-stretch:normal;font-size:medium;line-height:1.25;font-family:'Ancient Geek';-inkscape-font-specification:'Ancient Geek';letter-spacing:0px;word-spacing:0px;fill:#831216;fill-opacity:1;stroke:none;stroke-width:0.26458332"
         d="m -66.364752,-237.85639 q 1.345654,0 2.31028,0.9598 0.96945,0.95981 0.96945,2.28134 0,1.32154 -0.96945,2.31028 -0.964626,0.98875 -2.31028,0.98875 -1.379417,0 -2.319928,-0.98875 -0.940511,-0.98874 -0.940511,-2.31028 0,-1.36494 0.940511,-2.30063 0.940511,-0.94051 2.319928,-0.94051 z m -0.192926,0.48231 q -0.868164,0.0965 -1.52411,0.87781 -0.588422,0.69936 -0.588422,1.83762 0,0.13504 0.0096,0.27491 0.09646,1.06109 0.762055,1.8135 0.665593,0.75241 1.726682,0.7717 1.041797,-0.0772 1.60128,-0.82958 0.525722,-0.70417 0.525722,-1.96301 0,-0.0868 -0.0048,-0.17846 -0.09646,-1.08038 -0.790994,-1.86173 -0.66077,-0.74276 -1.620573,-0.74276 -0.04823,0 -0.09646,0 z m -1.389062,1.8135 h 0.250803 q 0,0.23151 0.115755,0.35691 0.115755,0.1254 0.366558,0.1254 h 1.697743 q 0.270096,-0.0193 0.376204,-0.1254 0.106109,-0.10611 0.106109,-0.35691 h 0.250803 v 1.92925 h -0.250803 q 0,-0.21222 -0.115755,-0.34726 -0.115755,-0.13505 -0.366558,-0.13505 h -1.697743 q -0.250803,0 -0.356912,0.1254 -0.106109,0.1254 -0.125401,0.35691 h -0.250803 z" />
    </g>
    <path
       d="m -139.06384,-354.1208 23.48187,-40.82236 23.481779,40.82236 z m 6.38231,-3.01056 h 30.4661 l -15.17284,-26.4923 z"
       style="font-style:normal;font-variant:normal;font-weight:normal;font-stretch:normal;font-size:medium;line-height:1.25;font-family:'Ancient Geek';-inkscape-font-specification:'Ancient Geek';letter-spacing:0px;word-spacing:0px;fill:#831216;fill-opacity:1;stroke:none;stroke-width:1.65146577"
       id="path877"
       inkscape:connector-curvature="0" />
    <g
       transform="translate(-42.144346,-125.63928)"
       id="g887">
      <path
         inkscape:connector-curvature="0"
         id="path879"
         style="font-style:normal;font-variant:normal;font-weight:normal;font-stretch:normal;font-size:medium;line-height:1.25;font-family:'Ancient Geek';-inkscape-font-specification:'Ancient Geek';letter-spacing:0px;word-spacing:0px;fill:#831216;fill-opacity:1;stroke:none;stroke-width:0.26458332"
         d="m -86.83413,-231.31622 h -1.736328 v -0.25081 q 0.347266,0 0.501606,-0.1254 0.15434,-0.1254 0.270095,-0.49196 l 1.929254,-5.672 h 0.771701 l 1.929253,5.672 q 0.09646,0.30868 0.241157,0.46302 0.144694,0.15434 0.530545,0.15434 v 0.25081 h -2.218642 v -0.25081 q 0.385851,0 0.482314,-0.15434 0.04823,-0.0772 0.04823,-0.19292 0,-0.11576 -0.04823,-0.2701 l -1.581988,-4.84242 -1.60128,4.84242 q -0.0627,0.18328 -0.0627,0.30868 0,0.11094 0.05305,0.17364 0.106109,0.13504 0.49196,0.13504 z" />
      <path
         inkscape:connector-curvature="0"
         id="path881"
         style="font-style:normal;font-variant:normal;font-weight:normal;font-stretch:normal;font-size:medium;line-height:1.25;font-family:'Ancient Geek';-inkscape-font-specification:'Ancient Geek';letter-spacing:0px;word-spacing:0px;fill:#831216;fill-opacity:1;stroke:none;stroke-width:0.26458332"
         d="m -82.184629,-231.31622 v -0.25081 q 0.327973,0 0.453375,-0.0868 0.125401,-0.0868 0.125401,-0.29904 v -5.22827 q 0,-0.2701 -0.125401,-0.34727 -0.125402,-0.0772 -0.453375,-0.0772 v -0.2508 h 2.122179 q 0.983919,0 1.620572,0.33762 0.636654,0.33762 0.636654,1.418 0,0.98392 -0.501606,1.37941 -0.47749,0.37621 -0.819932,0.37621 -0.01447,0 -0.02894,0 l 0.829579,1.08038 0.636653,-0.84887 h 0.540191 l -0.906749,1.23472 0.810287,0.96463 q 0.192925,0.17363 0.327973,0.2508 0.135047,0.0772 0.424435,0.0965 v 0.25081 h -2.064301 v -0.25081 q 0.270096,0 0.356912,-0.0965 0.03376,-0.0386 0.03376,-0.0916 0,-0.082 -0.08199,-0.19775 l -0.250803,-0.36655 -0.713824,1.00321 H -79.6766 l 0.887457,-1.3119 -1.331185,-1.71703 h -0.520898 v 2.39227 q 0,0.21222 0.125401,0.29904 0.125402,0.0868 0.453375,0.0868 v 0.25081 z m 1.543403,-3.51124 h 0.848871 q 0.559484,0 0.781348,-0.30868 0.221864,-0.30869 0.221864,-1.08039 0,-0.71382 -0.279742,-0.93568 -0.279742,-0.22187 -0.935688,-0.22187 h -0.636653 z" />
      <path
         inkscape:connector-curvature="0"
         id="path883"
         style="font-style:normal;font-variant:normal;font-weight:normal;font-stretch:normal;font-size:medium;line-height:1.25;font-family:'Ancient Geek';-inkscape-font-specification:'Ancient Geek';letter-spacing:0px;word-spacing:0px;fill:#831216;fill-opacity:1;stroke:none;stroke-width:0.26458332"
         d="m -75.895263,-234.57666 q 0,-1.09968 0.636653,-2.11253 0.636654,-1.01286 1.871376,-1.1672 0.207395,-0.01 0.385851,-0.01 0.487136,0 0.771701,0.0772 0.385851,0.10611 0.617361,0.22187 0.101286,0.0579 0.16881,0.0579 0.04341,0 0.07235,-0.0289 0.05305,-0.053 0.05305,-0.21221 0,-0.0482 -0.0048,-0.10611 h 0.30868 l 0.482314,1.69774 h -0.289388 q -0.578776,-0.84887 -1.167198,-1.09003 -0.395497,-0.16398 -0.921219,-0.16398 -0.255626,0 -0.535368,0.0386 -0.868164,0.21222 -1.234722,1.23472 -0.279742,0.77653 -0.279742,1.44212 0,0.21222 0.02894,0.40997 0.09646,1.09967 0.501606,1.75562 0.405143,0.65594 1.331185,0.73311 0.868164,0 1.205783,-0.54983 0.33762,-0.54984 0.33762,-1.22508 0,-0.21222 -0.125402,-0.29903 -0.125401,-0.0868 -0.453374,-0.0868 v -0.2508 h 1.543402 v 2.89388 q -0.270095,0 -0.453374,-0.1447 -0.183279,-0.14469 -0.26045,-0.41479 -0.347265,0.30868 -0.839225,0.44373 -0.429259,0.11576 -1.056266,0.12058 -0.09164,0 -0.188102,-0.005 -1.061089,0 -1.784559,-0.83923 -0.72347,-0.83922 -0.72347,-2.42121 z" />
      <path
         inkscape:connector-curvature="0"
         id="path885"
         style="font-style:normal;font-variant:normal;font-weight:normal;font-stretch:normal;font-size:medium;line-height:1.25;font-family:'Ancient Geek';-inkscape-font-specification:'Ancient Geek';letter-spacing:0px;word-spacing:0px;fill:#831216;fill-opacity:1;stroke:none;stroke-width:0.26458332"
         d="m -66.364752,-237.85639 q 1.345654,0 2.31028,0.9598 0.96945,0.95981 0.96945,2.28134 0,1.32154 -0.96945,2.31028 -0.964626,0.98875 -2.31028,0.98875 -1.379417,0 -2.319928,-0.98875 -0.940511,-0.98874 -0.940511,-2.31028 0,-1.36494 0.940511,-2.30063 0.940511,-0.94051 2.319928,-0.94051 z m -0.192926,0.48231 q -0.868164,0.0965 -1.52411,0.87781 -0.588422,0.69936 -0.588422,1.83762 0,0.13504 0.0096,0.27491 0.09646,1.06109 0.762055,1.8135 0.665593,0.75241 1.726682,0.7717 1.041797,-0.0772 1.60128,-0.82958 0.525722,-0.70417 0.525722,-1.96301 0,-0.0868 -0.0048,-0.17846 -0.09646,-1.08038 -0.790994,-1.86173 -0.66077,-0.74276 -1.620573,-0.74276 -0.04823,0 -0.09646,0 z m -1.389062,1.8135 h 0.250803 q 0,0.23151 0.115755,0.35691 0.115755,0.1254 0.366558,0.1254 h 1.697743 q 0.270096,-0.0193 0.376204,-0.1254 0.106109,-0.10611 0.106109,-0.35691 h 0.250803 v 1.92925 h -0.250803 q 0,-0.21222 -0.115755,-0.34726 -0.115755,-0.13505 -0.366558,-0.13505 h -1.697743 q -0.250803,0 -0.356912,0.1254 -0.106109,0.1254 -0.125401,0.35691 h -0.250803 z" />
    </g>
    <g
       transform="translate(33.462704,-130.16475)"
       id="g897">
      <path
         inkscape:connector-curvature="0"
         id="path889"
         style="font-style:normal;font-variant:normal;font-weight:normal;font-stretch:normal;font-size:medium;line-height:1.25;font-family:'Ancient Geek';-inkscape-font-specification:'Ancient Geek';letter-spacing:0px;word-spacing:0px;fill:#831216;fill-opacity:1;stroke:none;stroke-width:0.26458332"
         d="m -86.83413,-231.31622 h -1.736328 v -0.25081 q 0.347266,0 0.501606,-0.1254 0.15434,-0.1254 0.270095,-0.49196 l 1.929254,-5.672 h 0.771701 l 1.929253,5.672 q 0.09646,0.30868 0.241157,0.46302 0.144694,0.15434 0.530545,0.15434 v 0.25081 h -2.218642 v -0.25081 q 0.385851,0 0.482314,-0.15434 0.04823,-0.0772 0.04823,-0.19292 0,-0.11576 -0.04823,-0.2701 l -1.581988,-4.84242 -1.60128,4.84242 q -0.0627,0.18328 -0.0627,0.30868 0,0.11094 0.05305,0.17364 0.106109,0.13504 0.49196,0.13504 z" />
      <path
         inkscape:connector-curvature="0"
         id="path891"
         style="font-style:normal;font-variant:normal;font-weight:normal;font-stretch:normal;font-size:medium;line-height:1.25;font-family:'Ancient Geek';-inkscape-font-specification:'Ancient Geek';letter-spacing:0px;word-spacing:0px;fill:#831216;fill-opacity:1;stroke:none;stroke-width:0.26458332"
         d="m -82.184629,-231.31622 v -0.25081 q 0.327973,0 0.453375,-0.0868 0.125401,-0.0868 0.125401,-0.29904 v -5.22827 q 0,-0.2701 -0.125401,-0.34727 -0.125402,-0.0772 -0.453375,-0.0772 v -0.2508 h 2.122179 q 0.983919,0 1.620572,0.33762 0.636654,0.33762 0.636654,1.418 0,0.98392 -0.501606,1.37941 -0.47749,0.37621 -0.819932,0.37621 -0.01447,0 -0.02894,0 l 0.829579,1.08038 0.636653,-0.84887 h 0.540191 l -0.906749,1.23472 0.810287,0.96463 q 0.192925,0.17363 0.327973,0.2508 0.135047,0.0772 0.424435,0.0965 v 0.25081 h -2.064301 v -0.25081 q 0.270096,0 0.356912,-0.0965 0.03376,-0.0386 0.03376,-0.0916 0,-0.082 -0.08199,-0.19775 l -0.250803,-0.36655 -0.713824,1.00321 H -79.6766 l 0.887457,-1.3119 -1.331185,-1.71703 h -0.520898 v 2.39227 q 0,0.21222 0.125401,0.29904 0.125402,0.0868 0.453375,0.0868 v 0.25081 z m 1.543403,-3.51124 h 0.848871 q 0.559484,0 0.781348,-0.30868 0.221864,-0.30869 0.221864,-1.08039 0,-0.71382 -0.279742,-0.93568 -0.279742,-0.22187 -0.935688,-0.22187 h -0.636653 z" />
      <path
         inkscape:connector-curvature="0"
         id="path893"
         style="font-style:normal;font-variant:normal;font-weight:normal;font-stretch:normal;font-size:medium;line-height:1.25;font-family:'Ancient Geek';-inkscape-font-specification:'Ancient Geek';letter-spacing:0px;word-spacing:0px;fill:#831216;fill-opacity:1;stroke:none;stroke-width:0.26458332"
         d="m -75.895263,-234.57666 q 0,-1.09968 0.636653,-2.11253 0.636654,-1.01286 1.871376,-1.1672 0.207395,-0.01 0.385851,-0.01 0.487136,0 0.771701,0.0772 0.385851,0.10611 0.617361,0.22187 0.101286,0.0579 0.16881,0.0579 0.04341,0 0.07235,-0.0289 0.05305,-0.053 0.05305,-0.21221 0,-0.0482 -0.0048,-0.10611 h 0.30868 l 0.482314,1.69774 h -0.289388 q -0.578776,-0.84887 -1.167198,-1.09003 -0.395497,-0.16398 -0.921219,-0.16398 -0.255626,0 -0.535368,0.0386 -0.868164,0.21222 -1.234722,1.23472 -0.279742,0.77653 -0.279742,1.44212 0,0.21222 0.02894,0.40997 0.09646,1.09967 0.501606,1.75562 0.405143,0.65594 1.331185,0.73311 0.868164,0 1.205783,-0.54983 0.33762,-0.54984 0.33762,-1.22508 0,-0.21222 -0.125402,-0.29903 -0.125401,-0.0868 -0.453374,-0.0868 v -0.2508 h 1.543402 v 2.89388 q -0.270095,0 -0.453374,-0.1447 -0.183279,-0.14469 -0.26045,-0.41479 -0.347265,0.30868 -0.839225,0.44373 -0.429259,0.11576 -1.056266,0.12058 -0.09164,0 -0.188102,-0.005 -1.061089,0 -1.784559,-0.83923 -0.72347,-0.83922 -0.72347,-2.42121 z" />
      <path
         inkscape:connector-curvature="0"
         id="path895"
         style="font-style:normal;font-variant:normal;font-weight:normal;font-stretch:normal;font-size:medium;line-height:1.25;font-family:'Ancient Geek';-inkscape-font-specification:'Ancient Geek';letter-spacing:0px;word-spacing:0px;fill:#831216;fill-opacity:1;stroke:none;stroke-width:0.26458332"
         d="m -66.364752,-237.85639 q 1.345654,0 2.31028,0.9598 0.96945,0.95981 0.96945,2.28134 0,1.32154 -0.96945,2.31028 -0.964626,0.98875 -2.31028,0.98875 -1.379417,0 -2.319928,-0.98875 -0.940511,-0.98874 -0.940511,-2.31028 0,-1.36494 0.940511,-2.30063 0.940511,-0.94051 2.319928,-0.94051 z m -0.192926,0.48231 q -0.868164,0.0965 -1.52411,0.87781 -0.588422,0.69936 -0.588422,1.83762 0,0.13504 0.0096,0.27491 0.09646,1.06109 0.762055,1.8135 0.665593,0.75241 1.726682,0.7717 1.041797,-0.0772 1.60128,-0.82958 0.525722,-0.70417 0.525722,-1.96301 0,-0.0868 -0.0048,-0.17846 -0.09646,-1.08038 -0.790994,-1.86173 -0.66077,-0.74276 -1.620573,-0.74276 -0.04823,0 -0.09646,0 z m -1.389062,1.8135 h 0.250803 q 0,0.23151 0.115755,0.35691 0.115755,0.1254 0.366558,0.1254 h 1.697743 q 0.270096,-0.0193 0.376204,-0.1254 0.106109,-0.10611 0.106109,-0.35691 h 0.250803 v 1.92925 h -0.250803 q 0,-0.21222 -0.115755,-0.34726 -0.115755,-0.13505 -0.366558,-0.13505 h -1.697743 q -0.250803,0 -0.356912,0.1254 -0.106109,0.1254 -0.125401,0.35691 h -0.250803 z" />
    </g>
    <path
       d="m -32.407779,-322.80817 23.4818702,-40.82236 23.4817778,40.82236 z m 6.38231,-3.01056 H 4.4406342 l -15.1728442,-26.4923 z"
       style="font-style:normal;font-variant:normal;font-weight:normal;font-stretch:normal;font-size:medium;line-height:1.25;font-family:'Ancient Geek';-inkscape-font-specification:'Ancient Geek';letter-spacing:0px;word-spacing:0px;fill:#831216;fill-opacity:1;stroke:none;stroke-width:1.65146577"
       id="path899"
       inkscape:connector-curvature="0" />
    <path
       d="m -20.677828,-328.23857 h -1.520015 v -0.21956 q 0.304003,0 0.439115,-0.10978 0.135113,-0.10978 0.236447,-0.43067 l 1.688905,-4.96538 h 0.675562 l 1.688905,4.96538 q 0.08444,0.27022 0.211113,0.40534 0.126668,0.13511 0.46445,0.13511 v 0.21956 h -1.942242 v -0.21956 q 0.337781,0 0.422227,-0.13511 0.04222,-0.0676 0.04222,-0.16889 0,-0.10134 -0.04222,-0.23645 l -1.384902,-4.23915 -1.401791,4.23915 q -0.05489,0.16045 -0.05489,0.27022 0,0.0971 0.04644,0.15201 0.09289,0.11822 0.430671,0.11822 z"
       style="font-style:normal;font-variant:normal;font-weight:normal;font-stretch:normal;font-size:medium;line-height:1.25;font-family:'Ancient Geek';-inkscape-font-specification:'Ancient Geek';letter-spacing:0px;word-spacing:0px;fill:#831216;fill-opacity:1;stroke:none;stroke-width:0.23162128"
       id="path901"
       inkscape:connector-curvature="0" />
    <path
       d="m -16.607567,-328.23857 v -0.21956 q 0.287114,0 0.396893,-0.076 0.109779,-0.076 0.109779,-0.26178 v -4.57693 q 0,-0.23645 -0.109779,-0.30401 -0.109779,-0.0676 -0.396893,-0.0676 v -0.21955 h 1.857796 q 0.861342,0 1.41868,0.29555 0.557339,0.29556 0.557339,1.24135 0,0.86134 -0.439116,1.20756 -0.418003,0.32934 -0.717784,0.32934 -0.01267,0 -0.02533,0 l 0.726229,0.94579 0.557338,-0.74312 h 0.472894 l -0.793786,1.0809 0.709341,0.84445 q 0.16889,0.152 0.287114,0.21956 0.118223,0.0676 0.371558,0.0845 v 0.21956 h -1.807128 v -0.21956 q 0.236447,0 0.312447,-0.0845 0.02956,-0.0338 0.02956,-0.0802 0,-0.0718 -0.07178,-0.17311 l -0.219558,-0.32089 -0.624895,0.87823 h -0.405337 l 0.776896,-1.14846 -1.165344,-1.50312 h -0.456004 v 2.09424 q 0,0.18578 0.109778,0.26178 0.109779,0.076 0.396893,0.076 v 0.21956 z m 1.351125,-3.0738 h 0.743118 q 0.489783,0 0.684007,-0.27023 0.194223,-0.27023 0.194223,-0.94579 0,-0.62489 -0.244891,-0.81911 -0.244891,-0.19423 -0.819119,-0.19423 h -0.557338 z"
       style="font-style:normal;font-variant:normal;font-weight:normal;font-stretch:normal;font-size:medium;line-height:1.25;font-family:'Ancient Geek';-inkscape-font-specification:'Ancient Geek';letter-spacing:0px;word-spacing:0px;fill:#831216;fill-opacity:1;stroke:none;stroke-width:0.23162128"
       id="path903"
       inkscape:connector-curvature="0" />
    <path
       d="m -11.101736,-331.09282 q 0,-0.96268 0.557338,-1.84935 0.5573394,-0.88668 1.6382386,-1.02179 0.1815575,-0.009 0.3377813,-0.009 0.4264482,0 0.6755618,0.0676 0.3377813,0.0929 0.5404496,0.19423 0.088668,0.0507 0.1477795,0.0507 0.038002,0 0.063337,-0.0253 0.046441,-0.0464 0.046441,-0.18578 0,-0.0422 -0.0042,-0.0929 h 0.2702244 l 0.4222268,1.48624 h -0.2533358 q -0.5066715,-0.74312 -1.0217873,-0.95424 -0.3462256,-0.14355 -0.8064527,-0.14355 -0.2237799,0 -0.4686713,0.0338 -0.7600074,0.18579 -1.0808999,1.0809 -0.244891,0.67979 -0.244891,1.26246 0,0.18578 0.02533,0.3589 0.08444,0.96267 0.4391163,1.5369 0.3546699,0.57422 1.1653447,0.64178 0.7600073,0 1.0555654,-0.48133 0.295559,-0.48134 0.295559,-1.07246 0,-0.18578 -0.1097793,-0.26178 -0.1097784,-0.076 -0.3968922,-0.076 v -0.21956 h 1.3511235 v 2.53336 q -0.2364463,0 -0.3968922,-0.12667 -0.160446,-0.12667 -0.2280029,-0.36312 -0.3040024,0.27022 -0.7346736,0.38845 -0.3757815,0.10134 -0.9246754,0.10556 -0.080223,0 -0.1646681,-0.004 -0.9288975,0 -1.5622372,-0.73468 -0.63334,-0.73467 -0.63334,-2.11957 z"
       style="font-style:normal;font-variant:normal;font-weight:normal;font-stretch:normal;font-size:medium;line-height:1.25;font-family:'Ancient Geek';-inkscape-font-specification:'Ancient Geek';letter-spacing:0px;word-spacing:0px;fill:#831216;fill-opacity:1;stroke:none;stroke-width:0.23162128"
       id="path905"
       inkscape:connector-curvature="0" />
    <path
       d="m -2.7585448,-333.96396 q 1.1780111,0 2.02246313,0.84023 0.84867501,0.84024 0.84867501,1.99713 0,1.1569 -0.84867501,2.02246 -0.84445203,0.86557 -2.02246313,0.86557 -1.2075679,0 -2.0309092,-0.86557 -0.8233413,-0.86556 -0.8233413,-2.02246 0,-1.1949 0.8233413,-2.01402 0.8233413,-0.82334 2.0309092,-0.82334 z m -0.1688911,0.42223 q -0.7600073,0.0845 -1.334235,0.76845 -0.5151158,0.61223 -0.5151158,1.60869 0,0.11821 0.0084,0.24066 0.084443,0.9289 0.6671175,1.58757 0.5826728,0.65867 1.5115703,0.67556 0.912009,-0.0676 1.4017911,-0.72623 0.46022703,-0.61644 0.46022703,-1.71846 0,-0.076 -0.004202,-0.15622 -0.0844429,-0.94579 -0.69245123,-1.6298 -0.5784507,-0.65022 -1.4186805,-0.65022 -0.042221,0 -0.084443,0 z m -1.2160114,1.58757 h 0.2195578 q 0,0.20267 0.1013341,0.31244 0.1013341,0.10978 0.3208919,0.10978 h 1.4862365 q 0.2364472,-0.0169 0.3293362,-0.10978 0.09289,-0.0929 0.09289,-0.31244 h 0.2195578 v 1.6889 h -0.219558 q 0,-0.18578 -0.1013341,-0.304 -0.1013341,-0.11822 -0.3208919,-0.11822 h -1.4862365 q -0.2195578,0 -0.3124476,0.10977 -0.09289,0.10978 -0.1097784,0.31245 h -0.2195578 z"
       style="font-style:normal;font-variant:normal;font-weight:normal;font-stretch:normal;font-size:medium;line-height:1.25;font-family:'Ancient Geek';-inkscape-font-specification:'Ancient Geek';letter-spacing:0px;word-spacing:0px;fill:#831216;fill-opacity:1;stroke:none;stroke-width:0.23162128"
       id="path907"
       inkscape:connector-curvature="0" />
    <g
       id="g919"
       transform="translate(18.898809,-84.86624)">
      <path
         d="m -86.83413,-231.31622 h -1.736328 v -0.25081 q 0.347266,0 0.501606,-0.1254 0.15434,-0.1254 0.270095,-0.49196 l 1.929254,-5.672 h 0.771701 l 1.929253,5.672 q 0.09646,0.30868 0.241157,0.46302 0.144694,0.15434 0.530545,0.15434 v 0.25081 h -2.218642 v -0.25081 q 0.385851,0 0.482314,-0.15434 0.04823,-0.0772 0.04823,-0.19292 0,-0.11576 -0.04823,-0.2701 l -1.581988,-4.84242 -1.60128,4.84242 q -0.0627,0.18328 -0.0627,0.30868 0,0.11094 0.05305,0.17364 0.106109,0.13504 0.49196,0.13504 z"
         style="font-style:normal;font-variant:normal;font-weight:normal;font-stretch:normal;font-size:medium;line-height:1.25;font-family:'Ancient Geek';-inkscape-font-specification:'Ancient Geek';letter-spacing:0px;word-spacing:0px;fill:#831216;fill-opacity:1;stroke:none;stroke-width:0.26458332"
         id="path911"
         inkscape:connector-curvature="0" />
      <path
         d="m -82.184629,-231.31622 v -0.25081 q 0.327973,0 0.453375,-0.0868 0.125401,-0.0868 0.125401,-0.29904 v -5.22827 q 0,-0.2701 -0.125401,-0.34727 -0.125402,-0.0772 -0.453375,-0.0772 v -0.2508 h 2.122179 q 0.983919,0 1.620572,0.33762 0.636654,0.33762 0.636654,1.418 0,0.98392 -0.501606,1.37941 -0.47749,0.37621 -0.819932,0.37621 -0.01447,0 -0.02894,0 l 0.829579,1.08038 0.636653,-0.84887 h 0.540191 l -0.906749,1.23472 0.810287,0.96463 q 0.192925,0.17363 0.327973,0.2508 0.135047,0.0772 0.424435,0.0965 v 0.25081 h -2.064301 v -0.25081 q 0.270096,0 0.356912,-0.0965 0.03376,-0.0386 0.03376,-0.0916 0,-0.082 -0.08199,-0.19775 l -0.250803,-0.36655 -0.713824,1.00321 H -79.6766 l 0.887457,-1.3119 -1.331185,-1.71703 h -0.520898 v 2.39227 q 0,0.21222 0.125401,0.29904 0.125402,0.0868 0.453375,0.0868 v 0.25081 z m 1.543403,-3.51124 h 0.848871 q 0.559484,0 0.781348,-0.30868 0.221864,-0.30869 0.221864,-1.08039 0,-0.71382 -0.279742,-0.93568 -0.279742,-0.22187 -0.935688,-0.22187 h -0.636653 z"
         style="font-style:normal;font-variant:normal;font-weight:normal;font-stretch:normal;font-size:medium;line-height:1.25;font-family:'Ancient Geek';-inkscape-font-specification:'Ancient Geek';letter-spacing:0px;word-spacing:0px;fill:#831216;fill-opacity:1;stroke:none;stroke-width:0.26458332"
         id="path913"
         inkscape:connector-curvature="0" />
      <path
         d="m -75.895263,-234.57666 q 0,-1.09968 0.636653,-2.11253 0.636654,-1.01286 1.871376,-1.1672 0.207395,-0.01 0.385851,-0.01 0.487136,0 0.771701,0.0772 0.385851,0.10611 0.617361,0.22187 0.101286,0.0579 0.16881,0.0579 0.04341,0 0.07235,-0.0289 0.05305,-0.053 0.05305,-0.21221 0,-0.0482 -0.0048,-0.10611 h 0.30868 l 0.482314,1.69774 h -0.289388 q -0.578776,-0.84887 -1.167198,-1.09003 -0.395497,-0.16398 -0.921219,-0.16398 -0.255626,0 -0.535368,0.0386 -0.868164,0.21222 -1.234722,1.23472 -0.279742,0.77653 -0.279742,1.44212 0,0.21222 0.02894,0.40997 0.09646,1.09967 0.501606,1.75562 0.405143,0.65594 1.331185,0.73311 0.868164,0 1.205783,-0.54983 0.33762,-0.54984 0.33762,-1.22508 0,-0.21222 -0.125402,-0.29903 -0.125401,-0.0868 -0.453374,-0.0868 v -0.2508 h 1.543402 v 2.89388 q -0.270095,0 -0.453374,-0.1447 -0.183279,-0.14469 -0.26045,-0.41479 -0.347265,0.30868 -0.839225,0.44373 -0.429259,0.11576 -1.056266,0.12058 -0.09164,0 -0.188102,-0.005 -1.061089,0 -1.784559,-0.83923 -0.72347,-0.83922 -0.72347,-2.42121 z"
         style="font-style:normal;font-variant:normal;font-weight:normal;font-stretch:normal;font-size:medium;line-height:1.25;font-family:'Ancient Geek';-inkscape-font-specification:'Ancient Geek';letter-spacing:0px;word-spacing:0px;fill:#831216;fill-opacity:1;stroke:none;stroke-width:0.26458332"
         id="path915"
         inkscape:connector-curvature="0" />
      <path
         d="m -66.364752,-237.85639 q 1.345654,0 2.31028,0.9598 0.96945,0.95981 0.96945,2.28134 0,1.32154 -0.96945,2.31028 -0.964626,0.98875 -2.31028,0.98875 -1.379417,0 -2.319928,-0.98875 -0.940511,-0.98874 -0.940511,-2.31028 0,-1.36494 0.940511,-2.30063 0.940511,-0.94051 2.319928,-0.94051 z m -0.192926,0.48231 q -0.868164,0.0965 -1.52411,0.87781 -0.588422,0.69936 -0.588422,1.83762 0,0.13504 0.0096,0.27491 0.09646,1.06109 0.762055,1.8135 0.665593,0.75241 1.726682,0.7717 1.041797,-0.0772 1.60128,-0.82958 0.525722,-0.70417 0.525722,-1.96301 0,-0.0868 -0.0048,-0.17846 -0.09646,-1.08038 -0.790994,-1.86173 -0.66077,-0.74276 -1.620573,-0.74276 -0.04823,0 -0.09646,0 z m -1.389062,1.8135 h 0.250803 q 0,0.23151 0.115755,0.35691 0.115755,0.1254 0.366558,0.1254 h 1.697743 q 0.270096,-0.0193 0.376204,-0.1254 0.106109,-0.10611 0.106109,-0.35691 h 0.250803 v 1.92925 h -0.250803 q 0,-0.21222 -0.115755,-0.34726 -0.115755,-0.13505 -0.366558,-0.13505 h -1.697743 q -0.250803,0 -0.356912,0.1254 -0.106109,0.1254 -0.125401,0.35691 h -0.250803 z"
         style="font-style:normal;font-variant:normal;font-weight:normal;font-stretch:normal;font-size:medium;line-height:1.25;font-family:'Ancient Geek';-inkscape-font-specification:'Ancient Geek';letter-spacing:0px;word-spacing:0px;fill:#831216;fill-opacity:1;stroke:none;stroke-width:0.26458332"
         id="path917"
         inkscape:connector-curvature="0" />
    </g>
    <path
       d="m -96.214808,-334.35312 -13.063852,22.71098 -13.0638,-22.71098 z m -3.55072,1.67488 h -16.949442 l 8.44123,14.73865 z"
       style="font-style:normal;font-variant:normal;font-weight:normal;font-stretch:normal;font-size:medium;line-height:1.25;font-family:'Ancient Geek';-inkscape-font-specification:'Ancient Geek';letter-spacing:0px;word-spacing:0px;fill:#831216;fill-opacity:1;stroke:none;stroke-width:0.91877276"
       id="path923"
       inkscape:connector-curvature="0" />
    <g
       id="g956">
      <path
         d="m 12.05167,-330.50943 23.481871,-40.82236 23.481777,40.82236 z m 6.38231,-3.01056 h 30.466104 l -15.172845,-26.4923 z"
         style="font-style:normal;font-variant:normal;font-weight:normal;font-stretch:normal;font-size:medium;line-height:1.25;font-family:'Ancient Geek';-inkscape-font-specification:'Ancient Geek';letter-spacing:0px;word-spacing:0px;fill:#831216;fill-opacity:1;stroke:none;stroke-width:1.65146577"
         id="path927"
         inkscape:connector-curvature="0" />
      <g
         transform="matrix(0.87541906,0,0,0.87541906,99.797873,-133.4412)"
         id="g939">
        <path
           inkscape:connector-curvature="0"
           id="path929"
           style="font-style:normal;font-variant:normal;font-weight:normal;font-stretch:normal;font-size:medium;line-height:1.25;font-family:'Ancient Geek';-inkscape-font-specification:'Ancient Geek';letter-spacing:0px;word-spacing:0px;fill:#831216;fill-opacity:1;stroke:none;stroke-width:0.26458332"
           d="m -86.83413,-231.31622 h -1.736328 v -0.25081 q 0.347266,0 0.501606,-0.1254 0.15434,-0.1254 0.270095,-0.49196 l 1.929254,-5.672 h 0.771701 l 1.929253,5.672 q 0.09646,0.30868 0.241157,0.46302 0.144694,0.15434 0.530545,0.15434 v 0.25081 h -2.218642 v -0.25081 q 0.385851,0 0.482314,-0.15434 0.04823,-0.0772 0.04823,-0.19292 0,-0.11576 -0.04823,-0.2701 l -1.581988,-4.84242 -1.60128,4.84242 q -0.0627,0.18328 -0.0627,0.30868 0,0.11094 0.05305,0.17364 0.106109,0.13504 0.49196,0.13504 z" />
        <path
           inkscape:connector-curvature="0"
           id="path933"
           style="font-style:normal;font-variant:normal;font-weight:normal;font-stretch:normal;font-size:medium;line-height:1.25;font-family:'Ancient Geek';-inkscape-font-specification:'Ancient Geek';letter-spacing:0px;word-spacing:0px;fill:#831216;fill-opacity:1;stroke:none;stroke-width:0.26458332"
           d="m -75.895263,-234.57666 q 0,-1.09968 0.636653,-2.11253 0.636654,-1.01286 1.871376,-1.1672 0.207395,-0.01 0.385851,-0.01 0.487136,0 0.771701,0.0772 0.385851,0.10611 0.617361,0.22187 0.101286,0.0579 0.16881,0.0579 0.04341,0 0.07235,-0.0289 0.05305,-0.053 0.05305,-0.21221 0,-0.0482 -0.0048,-0.10611 h 0.30868 l 0.482314,1.69774 h -0.289388 q -0.578776,-0.84887 -1.167198,-1.09003 -0.395497,-0.16398 -0.921219,-0.16398 -0.255626,0 -0.535368,0.0386 -0.868164,0.21222 -1.234722,1.23472 -0.279742,0.77653 -0.279742,1.44212 0,0.21222 0.02894,0.40997 0.09646,1.09967 0.501606,1.75562 0.405143,0.65594 1.331185,0.73311 0.868164,0 1.205783,-0.54983 0.33762,-0.54984 0.33762,-1.22508 0,-0.21222 -0.125402,-0.29903 -0.125401,-0.0868 -0.453374,-0.0868 v -0.2508 h 1.543402 v 2.89388 q -0.270095,0 -0.453374,-0.1447 -0.183279,-0.14469 -0.26045,-0.41479 -0.347265,0.30868 -0.839225,0.44373 -0.429259,0.11576 -1.056266,0.12058 -0.09164,0 -0.188102,-0.005 -1.061089,0 -1.784559,-0.83923 -0.72347,-0.83922 -0.72347,-2.42121 z" />
        <path
           inkscape:connector-curvature="0"
           id="path935"
           style="font-style:normal;font-variant:normal;font-weight:normal;font-stretch:normal;font-size:medium;line-height:1.25;font-family:'Ancient Geek';-inkscape-font-specification:'Ancient Geek';letter-spacing:0px;word-spacing:0px;fill:#831216;fill-opacity:1;stroke:none;stroke-width:0.26458332"
           d="m -66.364752,-237.85639 q 1.345654,0 2.31028,0.9598 0.96945,0.95981 0.96945,2.28134 0,1.32154 -0.96945,2.31028 -0.964626,0.98875 -2.31028,0.98875 -1.379417,0 -2.319928,-0.98875 -0.940511,-0.98874 -0.940511,-2.31028 0,-1.36494 0.940511,-2.30063 0.940511,-0.94051 2.319928,-0.94051 z m -0.192926,0.48231 q -0.868164,0.0965 -1.52411,0.87781 -0.588422,0.69936 -0.588422,1.83762 0,0.13504 0.0096,0.27491 0.09646,1.06109 0.762055,1.8135 0.665593,0.75241 1.726682,0.7717 1.041797,-0.0772 1.60128,-0.82958 0.525722,-0.70417 0.525722,-1.96301 0,-0.0868 -0.0048,-0.17846 -0.09646,-1.08038 -0.790994,-1.86173 -0.66077,-0.74276 -1.620573,-0.74276 -0.04823,0 -0.09646,0 z m -1.389062,1.8135 h 0.250803 q 0,0.23151 0.115755,0.35691 0.115755,0.1254 0.366558,0.1254 h 1.697743 q 0.270096,-0.0193 0.376204,-0.1254 0.106109,-0.10611 0.106109,-0.35691 h 0.250803 v 1.92925 h -0.250803 q 0,-0.21222 -0.115755,-0.34726 -0.115755,-0.13505 -0.366558,-0.13505 h -1.697743 q -0.250803,0 -0.356912,0.1254 -0.106109,0.1254 -0.125401,0.35691 h -0.250803 z" />
        <path
           d="m -82.184629,-231.31622 v -0.25081 c 0.218649,0 0.369774,-0.0289 0.453375,-0.0868 0.0836,-0.0579 0.125401,-0.15755 0.125401,-0.29904 v -5.22827 c 0,-0.18007 -0.0418,-0.29582 -0.125401,-0.34727 -0.0836,-0.0515 -0.234726,-0.0772 -0.453375,-0.0772 v -0.2508 h 2.122179 c 0.655946,0 1.196137,0.11254 1.620572,0.33762 0.424436,0.22508 0.636654,0.69775 0.636654,1.418 0,0.65595 -0.167202,1.11575 -0.501606,1.37941 -0.318327,0.25081 -0.591637,0.37621 -0.819932,0.37621 h -0.02894 l 1.909961,2.43086 c 0.128617,0.11575 0.237941,0.19935 0.327973,0.2508 0.09003,0.0515 0.23151,0.0836 0.424435,0.0965 v 0.25081 h -2.064301 v -0.25081 c 0.180064,0 0.299035,-0.0322 0.356912,-0.0965 0.02251,-0.0257 0.03376,-0.0563 0.03376,-0.0916 0,-0.0547 -0.02733,-0.12058 -0.08199,-0.19775 l -1.871376,-2.39227 h -0.520898 v 2.39227 c 0,0.14148 0.0418,0.24116 0.125401,0.29904 0.0836,0.0579 0.234726,0.0868 0.453375,0.0868 v 0.25081 z m 1.543403,-3.51124 h 0.848871 c 0.372989,0 0.633439,-0.10289 0.781348,-0.30868 0.147909,-0.20579 0.221864,-0.56592 0.221864,-1.08039 0,-0.47588 -0.09325,-0.78777 -0.279742,-0.93568 -0.186495,-0.14791 -0.498391,-0.22187 -0.935688,-0.22187 h -0.636653 z"
           style="font-style:normal;font-variant:normal;font-weight:normal;font-stretch:normal;font-size:medium;line-height:1.25;font-family:'Ancient Geek';-inkscape-font-specification:'Ancient Geek';letter-spacing:0px;word-spacing:0px;fill:#831216;fill-opacity:1;stroke:none;stroke-width:0.26458332"
           id="path937"
           inkscape:connector-curvature="0"
           sodipodi:nodetypes="cccsscccssscsccccccccscccscccccscscscc" />
      </g>
    </g>
    <g
       id="g1033"
       transform="matrix(0.25,0,0,0.25,136.33359,-286.1631)"
       inkscape:export-filename="/home/iason/argo-256T.png"
       inkscape:export-xdpi="520.19202"
       inkscape:export-ydpi="520.19202">
      <g
         transform="matrix(1.0646533,0,0,1.0646533,43.414874,13.681044)"
         id="g984">
        <path
           d="m 76.730896,-352.15826 23.481874,-40.82236 23.48177,40.82236 z m 6.38231,-3.01056 h 30.466104 l -15.172845,-26.4923 z"
           style="font-style:normal;font-variant:normal;font-weight:normal;font-stretch:normal;font-size:medium;line-height:1.25;font-family:'Ancient Geek';-inkscape-font-specification:'Ancient Geek';letter-spacing:0px;word-spacing:0px;fill:#831216;fill-opacity:1;stroke:none;stroke-width:1.65146577"
           id="path958"
           inkscape:connector-curvature="0" />
        <g
           transform="matrix(0.87541906,0,0,0.87541906,164.4771,-155.09003)"
           id="g968">
          <path
             inkscape:connector-curvature="0"
             id="path960"
             style="font-style:normal;font-variant:normal;font-weight:normal;font-stretch:normal;font-size:medium;line-height:1.25;font-family:'Ancient Geek';-inkscape-font-specification:'Ancient Geek';letter-spacing:0px;word-spacing:0px;fill:#831216;fill-opacity:1;stroke:none;stroke-width:0.26458332"
             d="m -86.83413,-231.31622 h -1.736328 v -0.25081 q 0.347266,0 0.501606,-0.1254 0.15434,-0.1254 0.270095,-0.49196 l 1.929254,-5.672 h 0.771701 l 1.929253,5.672 q 0.09646,0.30868 0.241157,0.46302 0.144694,0.15434 0.530545,0.15434 v 0.25081 h -2.218642 v -0.25081 q 0.385851,0 0.482314,-0.15434 0.04823,-0.0772 0.04823,-0.19292 0,-0.11576 -0.04823,-0.2701 l -1.581988,-4.84242 -1.60128,4.84242 q -0.0627,0.18328 -0.0627,0.30868 0,0.11094 0.05305,0.17364 0.106109,0.13504 0.49196,0.13504 z" />
          <path
             inkscape:connector-curvature="0"
             id="path962"
             style="font-style:normal;font-variant:normal;font-weight:normal;font-stretch:normal;font-size:medium;line-height:1.25;font-family:'Ancient Geek';-inkscape-font-specification:'Ancient Geek';letter-spacing:0px;word-spacing:0px;fill:#831216;fill-opacity:1;stroke:none;stroke-width:0.26458332"
             d="m -75.895263,-234.57666 q 0,-1.09968 0.636653,-2.11253 0.636654,-1.01286 1.871376,-1.1672 0.207395,-0.01 0.385851,-0.01 0.487136,0 0.771701,0.0772 0.385851,0.10611 0.617361,0.22187 0.101286,0.0579 0.16881,0.0579 0.04341,0 0.07235,-0.0289 0.05305,-0.053 0.05305,-0.21221 0,-0.0482 -0.0048,-0.10611 h 0.30868 l 0.482314,1.69774 h -0.289388 q -0.578776,-0.84887 -1.167198,-1.09003 -0.395497,-0.16398 -0.921219,-0.16398 -0.255626,0 -0.535368,0.0386 -0.868164,0.21222 -1.234722,1.23472 -0.279742,0.77653 -0.279742,1.44212 0,0.21222 0.02894,0.40997 0.09646,1.09967 0.501606,1.75562 0.405143,0.65594 1.331185,0.73311 0.868164,0 1.205783,-0.54983 0.33762,-0.54984 0.33762,-1.22508 0,-0.21222 -0.125402,-0.29903 -0.125401,-0.0868 -0.453374,-0.0868 v -0.2508 h 1.543402 v 2.89388 q -0.270095,0 -0.453374,-0.1447 -0.183279,-0.14469 -0.26045,-0.41479 -0.347265,0.30868 -0.839225,0.44373 -0.429259,0.11576 -1.056266,0.12058 -0.09164,0 -0.188102,-0.005 -1.061089,0 -1.784559,-0.83923 -0.72347,-0.83922 -0.72347,-2.42121 z" />
          <path
             inkscape:connector-curvature="0"
             id="path964"
             style="font-style:normal;font-variant:normal;font-weight:normal;font-stretch:normal;font-size:medium;line-height:1.25;font-family:'Ancient Geek';-inkscape-font-specification:'Ancient Geek';letter-spacing:0px;word-spacing:0px;fill:#831216;fill-opacity:1;stroke:none;stroke-width:0.26458332"
             d="m -66.364752,-237.85639 q 1.345654,0 2.31028,0.9598 0.96945,0.95981 0.96945,2.28134 0,1.32154 -0.96945,2.31028 -0.964626,0.98875 -2.31028,0.98875 -1.379417,0 -2.319928,-0.98875 -0.940511,-0.98874 -0.940511,-2.31028 0,-1.36494 0.940511,-2.30063 0.940511,-0.94051 2.319928,-0.94051 z m -0.192926,0.48231 q -0.868164,0.0965 -1.52411,0.87781 -0.588422,0.69936 -0.588422,1.83762 0,0.13504 0.0096,0.27491 0.09646,1.06109 0.762055,1.8135 0.665593,0.75241 1.726682,0.7717 1.041797,-0.0772 1.60128,-0.82958 0.525722,-0.70417 0.525722,-1.96301 0,-0.0868 -0.0048,-0.17846 -0.09646,-1.08038 -0.790994,-1.86173 -0.66077,-0.74276 -1.620573,-0.74276 -0.04823,0 -0.09646,0 z m -1.389062,1.8135 h 0.250803 q 0,0.23151 0.115755,0.35691 0.115755,0.1254 0.366558,0.1254 h 1.697743 q 0.270096,-0.0193 0.376204,-0.1254 0.106109,-0.10611 0.106109,-0.35691 h 0.250803 v 1.92925 h -0.250803 q 0,-0.21222 -0.115755,-0.34726 -0.115755,-0.13505 -0.366558,-0.13505 h -1.697743 q -0.250803,0 -0.356912,0.1254 -0.106109,0.1254 -0.125401,0.35691 h -0.250803 z" />
          <path
             d="m -82.184629,-231.31622 v -0.25081 c 0.218649,0 0.369774,-0.0289 0.453375,-0.0868 0.0836,-0.0579 0.125401,-0.15755 0.125401,-0.29904 v -5.22827 c 0,-0.18007 -0.0418,-0.29582 -0.125401,-0.34727 -0.0836,-0.0515 -0.234726,-0.0772 -0.453375,-0.0772 v -0.2508 h 2.122179 c 0.655946,0 1.196137,0.11254 1.620572,0.33762 0.424436,0.22508 0.636654,0.69775 0.636654,1.418 0,0.65595 -0.167202,1.11575 -0.501606,1.37941 -0.318327,0.25081 -0.591637,0.37621 -0.819932,0.37621 h -0.02894 l 1.909961,2.43086 c 0.128617,0.11575 0.237941,0.19935 0.327973,0.2508 0.09003,0.0515 0.23151,0.0836 0.424435,0.0965 v 0.25081 h -2.064301 v -0.25081 c 0.180064,0 0.299035,-0.0322 0.356912,-0.0965 0.02251,-0.0257 0.03376,-0.0563 0.03376,-0.0916 0,-0.0547 -0.02733,-0.12058 -0.08199,-0.19775 l -1.871376,-2.39227 h -0.520898 v 2.39227 c 0,0.14148 0.0418,0.24116 0.125401,0.29904 0.0836,0.0579 0.234726,0.0868 0.453375,0.0868 v 0.25081 z m 1.543403,-3.51124 h 0.848871 c 0.372989,0 0.633439,-0.10289 0.781348,-0.30868 0.147909,-0.20579 0.221864,-0.56592 0.221864,-1.08039 0,-0.47588 -0.09325,-0.78777 -0.279742,-0.93568 -0.186495,-0.14791 -0.498391,-0.22187 -0.935688,-0.22187 h -0.636653 z"
             style="font-style:normal;font-variant:normal;font-weight:normal;font-stretch:normal;font-size:medium;line-height:1.25;font-family:'Ancient Geek';-inkscape-font-specification:'Ancient Geek';letter-spacing:0px;word-spacing:0px;fill:#831216;fill-opacity:1;stroke:none;stroke-width:0.26458332"
             id="path966"
             inkscape:connector-curvature="0"
             sodipodi:nodetypes="cccsscccssscsccccccccscccscccccscscscc" />
        </g>
      </g>
      <path
         inkscape:connector-curvature="0"
         id="rect1000"
         d="m 125.10668,-407.97624 h 49.99999 v 50 h -49.99999 z"
         style="opacity:0;fill:#831216;fill-opacity:1;fill-rule:nonzero;stroke:none;stroke-width:0.62762111;stroke-linecap:square;stroke-linejoin:miter;stroke-miterlimit:4;stroke-dasharray:none;stroke-opacity:1;paint-order:normal" />
    </g>
    <g
       id="g1042"
       transform="matrix(0.25,0,0,0.25,136.33359,-286.43037)"
       inkscape:export-filename="/home/iason/argo-256W.png"
       inkscape:export-xdpi="520.19202"
       inkscape:export-ydpi="520.19202">
      <path
         style="opacity:1;fill:#ffffff;fill-opacity:1;fill-rule:nonzero;stroke:none;stroke-width:0.62762111;stroke-linecap:square;stroke-linejoin:miter;stroke-miterlimit:4;stroke-dasharray:none;stroke-opacity:1;paint-order:normal"
         d="m 188.44956,-406.90716 h 49.99999 v 50 h -49.99999 z"
         id="path1017"
         inkscape:connector-curvature="0" />
      <path
         d="m 188.44956,-360.17634 25.00006,-43.46166 24.99994,43.46166 z m 6.79495,-3.2052 h 32.43584 l -16.15382,-28.20511 z"
         style="font-style:normal;font-variant:normal;font-weight:normal;font-stretch:normal;font-size:medium;line-height:1.25;font-family:'Ancient Geek';-inkscape-font-specification:'Ancient Geek';letter-spacing:0px;word-spacing:0px;fill:#831216;fill-opacity:1;stroke:none;stroke-width:1.75823843"
         id="path1003"
         inkscape:connector-curvature="0" />
      <g
         transform="matrix(0.93201779,0,0,0.93201779,281.86885,-150.36699)"
         id="g1013">
        <path
           inkscape:connector-curvature="0"
           id="path1005"
           style="font-style:normal;font-variant:normal;font-weight:normal;font-stretch:normal;font-size:medium;line-height:1.25;font-family:'Ancient Geek';-inkscape-font-specification:'Ancient Geek';letter-spacing:0px;word-spacing:0px;fill:#831216;fill-opacity:1;stroke:none;stroke-width:0.26458332"
           d="m -86.83413,-231.31622 h -1.736328 v -0.25081 q 0.347266,0 0.501606,-0.1254 0.15434,-0.1254 0.270095,-0.49196 l 1.929254,-5.672 h 0.771701 l 1.929253,5.672 q 0.09646,0.30868 0.241157,0.46302 0.144694,0.15434 0.530545,0.15434 v 0.25081 h -2.218642 v -0.25081 q 0.385851,0 0.482314,-0.15434 0.04823,-0.0772 0.04823,-0.19292 0,-0.11576 -0.04823,-0.2701 l -1.581988,-4.84242 -1.60128,4.84242 q -0.0627,0.18328 -0.0627,0.30868 0,0.11094 0.05305,0.17364 0.106109,0.13504 0.49196,0.13504 z" />
        <path
           inkscape:connector-curvature="0"
           id="path1007"
           style="font-style:normal;font-variant:normal;font-weight:normal;font-stretch:normal;font-size:medium;line-height:1.25;font-family:'Ancient Geek';-inkscape-font-specification:'Ancient Geek';letter-spacing:0px;word-spacing:0px;fill:#831216;fill-opacity:1;stroke:none;stroke-width:0.26458332"
           d="m -75.895263,-234.57666 q 0,-1.09968 0.636653,-2.11253 0.636654,-1.01286 1.871376,-1.1672 0.207395,-0.01 0.385851,-0.01 0.487136,0 0.771701,0.0772 0.385851,0.10611 0.617361,0.22187 0.101286,0.0579 0.16881,0.0579 0.04341,0 0.07235,-0.0289 0.05305,-0.053 0.05305,-0.21221 0,-0.0482 -0.0048,-0.10611 h 0.30868 l 0.482314,1.69774 h -0.289388 q -0.578776,-0.84887 -1.167198,-1.09003 -0.395497,-0.16398 -0.921219,-0.16398 -0.255626,0 -0.535368,0.0386 -0.868164,0.21222 -1.234722,1.23472 -0.279742,0.77653 -0.279742,1.44212 0,0.21222 0.02894,0.40997 0.09646,1.09967 0.501606,1.75562 0.405143,0.65594 1.331185,0.73311 0.868164,0 1.205783,-0.54983 0.33762,-0.54984 0.33762,-1.22508 0,-0.21222 -0.125402,-0.29903 -0.125401,-0.0868 -0.453374,-0.0868 v -0.2508 h 1.543402 v 2.89388 q -0.270095,0 -0.453374,-0.1447 -0.183279,-0.14469 -0.26045,-0.41479 -0.347265,0.30868 -0.839225,0.44373 -0.429259,0.11576 -1.056266,0.12058 -0.09164,0 -0.188102,-0.005 -1.061089,0 -1.784559,-0.83923 -0.72347,-0.83922 -0.72347,-2.42121 z" />
        <path
           inkscape:connector-curvature="0"
           id="path1009"
           style="font-style:normal;font-variant:normal;font-weight:normal;font-stretch:normal;font-size:medium;line-height:1.25;font-family:'Ancient Geek';-inkscape-font-specification:'Ancient Geek';letter-spacing:0px;word-spacing:0px;fill:#831216;fill-opacity:1;stroke:none;stroke-width:0.26458332"
           d="m -66.364752,-237.85639 q 1.345654,0 2.31028,0.9598 0.96945,0.95981 0.96945,2.28134 0,1.32154 -0.96945,2.31028 -0.964626,0.98875 -2.31028,0.98875 -1.379417,0 -2.319928,-0.98875 -0.940511,-0.98874 -0.940511,-2.31028 0,-1.36494 0.940511,-2.30063 0.940511,-0.94051 2.319928,-0.94051 z m -0.192926,0.48231 q -0.868164,0.0965 -1.52411,0.87781 -0.588422,0.69936 -0.588422,1.83762 0,0.13504 0.0096,0.27491 0.09646,1.06109 0.762055,1.8135 0.665593,0.75241 1.726682,0.7717 1.041797,-0.0772 1.60128,-0.82958 0.525722,-0.70417 0.525722,-1.96301 0,-0.0868 -0.0048,-0.17846 -0.09646,-1.08038 -0.790994,-1.86173 -0.66077,-0.74276 -1.620573,-0.74276 -0.04823,0 -0.09646,0 z m -1.389062,1.8135 h 0.250803 q 0,0.23151 0.115755,0.35691 0.115755,0.1254 0.366558,0.1254 h 1.697743 q 0.270096,-0.0193 0.376204,-0.1254 0.106109,-0.10611 0.106109,-0.35691 h 0.250803 v 1.92925 h -0.250803 q 0,-0.21222 -0.115755,-0.34726 -0.115755,-0.13505 -0.366558,-0.13505 h -1.697743 q -0.250803,0 -0.356912,0.1254 -0.106109,0.1254 -0.125401,0.35691 h -0.250803 z" />
        <path
           d="m -82.184629,-231.31622 v -0.25081 c 0.218649,0 0.369774,-0.0289 0.453375,-0.0868 0.0836,-0.0579 0.125401,-0.15755 0.125401,-0.29904 v -5.22827 c 0,-0.18007 -0.0418,-0.29582 -0.125401,-0.34727 -0.0836,-0.0515 -0.234726,-0.0772 -0.453375,-0.0772 v -0.2508 h 2.122179 c 0.655946,0 1.196137,0.11254 1.620572,0.33762 0.424436,0.22508 0.636654,0.69775 0.636654,1.418 0,0.65595 -0.167202,1.11575 -0.501606,1.37941 -0.318327,0.25081 -0.591637,0.37621 -0.819932,0.37621 h -0.02894 l 1.909961,2.43086 c 0.128617,0.11575 0.237941,0.19935 0.327973,0.2508 0.09003,0.0515 0.23151,0.0836 0.424435,0.0965 v 0.25081 h -2.064301 v -0.25081 c 0.180064,0 0.299035,-0.0322 0.356912,-0.0965 0.02251,-0.0257 0.03376,-0.0563 0.03376,-0.0916 0,-0.0547 -0.02733,-0.12058 -0.08199,-0.19775 l -1.871376,-2.39227 h -0.520898 v 2.39227 c 0,0.14148 0.0418,0.24116 0.125401,0.29904 0.0836,0.0579 0.234726,0.0868 0.453375,0.0868 v 0.25081 z m 1.543403,-3.51124 h 0.848871 c 0.372989,0 0.633439,-0.10289 0.781348,-0.30868 0.147909,-0.20579 0.221864,-0.56592 0.221864,-1.08039 0,-0.47588 -0.09325,-0.78777 -0.279742,-0.93568 -0.186495,-0.14791 -0.498391,-0.22187 -0.935688,-0.22187 h -0.636653 z"
           style="font-style:normal;font-variant:normal;font-weight:normal;font-stretch:normal;font-size:medium;line-height:1.25;font-family:'Ancient Geek';-inkscape-font-specification:'Ancient Geek';letter-spacing:0px;word-spacing:0px;fill:#831216;fill-opacity:1;stroke:none;stroke-width:0.26458332"
           id="path1011"
           inkscape:connector-curvature="0"
           sodipodi:nodetypes="cccsscccssscsccccccccscccscccccscscscc" />
      </g>
    </g>
  </g>
</svg>
